<svg xmlns="http://www.w3.org/2000/svg" width="1000" height="1000"><path fill-opacity=".016" d="M0 500.001v500.001l500.25-.251 500.25-.251.251-499.75.251-499.75H0v500.001m.496.499c0 275 .114 387.351.254 249.668.14-137.682.14-362.682 0-500C.61 112.851.496 225.5.496 500.5" fill="#1976D2" fill-rule="evenodd"/><path fill-opacity=".083" d="M451 66.001c-51.149 1.666-82.52 3.456-103 5.875-4.675.552-16.6 1.717-26.5 2.587-9.9.871-22.378 2.047-27.73 2.615-5.351.567-12.335 1.229-15.518 1.47-5.018.381-16.155 1.526-52.752 5.424-4.4.469-8.675 1.083-9.5 1.364-.825.282-4.65.762-8.5 1.068-9.235.734-43.976 5.301-54 7.099-30.566 5.484-42.013 11.696-50.184 27.236-6.565 12.486-9.14 22.154-10.816 40.618-.342 3.771-.812 8.271-1.045 10-.691 5.139-2.262 24.131-3.114 37.643-.813 12.883-.828 66.698-.022 76 .357 4.125.947 10.2 1.311 13.5.364 3.3.596 7.462.516 9.25-.079 1.788.254 3.25.741 3.25 1.49 0 2.207 8.285 1.039 12-1.108 3.524-1.571 5.573-6.212 27.5-4.898 23.134-9.448 50.378-12.193 73-.868 7.15-2.002 16.375-2.521 20.5-1.707 13.565-4.099 43.078-5.552 68.5-.786 13.75-1.855 27.7-2.376 31-2.512 15.909-2.205 80.999.489 103.5.358 2.992 1.987 21.719 4.001 46 .569 6.86 4.198 42.044 4.95 48 .243 1.925.701 5.975 1.017 9 .315 3.025.758 6.625.982 8 .225 1.375.667 5.2.981 8.5.315 3.3 1.651 13.425 2.969 22.5 1.319 9.075 3.135 21.9 4.036 28.5.901 6.6 2.253 15.15 3.003 19 .75 3.85 2.125 11.05 3.056 16 2.588 13.77 7.087 27.707 10.438 32.333 1.653 2.282 3.009 4.491 3.013 4.908.009.915 6.289 7.26 10.603 10.712 9.742 7.797 28.138 13.128 58.39 16.921 2.475.31 6.3.796 8.5 1.079 13.779 1.771 50.893 5.771 61 6.574 6.6.523 15.6 1.4 20 1.948 4.4.547 15.65 1.464 25 2.038 20.241 1.241 28.446 1.833 34.5 2.488 2.475.268 10.575.707 18 .975 12.734.461 18.931.741 45.5 2.054 6.05.299 22.25 1.632 36 2.962 13.75 1.331 34.9 2.892 47 3.47 12.1.579 30.775 1.589 41.5 2.245 11.204.686 43.536 1.186 76 1.176 85.362-.028 125.829-1.481 175-6.286 11.275-1.101 25-2.256 30.5-2.565 5.5-.309 12.475-.999 15.5-1.532 3.025-.533 9.325-1.454 14-2.046 27.503-3.486 43.284-5.694 46-6.436.275-.075 2.409-.486 4.742-.914 2.334-.427 6.384-1.806 9-3.064 2.617-1.257 6.22-2.604 8.008-2.993 1.788-.388 3.25-1.071 3.25-1.518 0-.447 1.125-1.095 2.5-1.44s2.5-1.069 2.5-1.608c0-.54.514-.981 1.143-.981 1.905 0 14.857-14.016 14.857-16.078 0-1.057.525-1.922 1.167-1.922.641 0 .875-.291.519-.648-.357-.356.203-2.268 1.244-4.25 2.806-5.344 7.149-17.034 7.63-20.537.231-1.686 1.081-5.99 1.889-9.565.808-3.575 1.698-8.525 1.979-11 .281-2.475.967-6.88 1.523-9.79.557-2.909 1.266-8.083 1.575-11.497.31-3.415 1.17-8.009 1.913-10.211.742-2.201 1.601-6.477 1.909-9.502.988-9.706 2.558-23.006 5.125-43.411 1.378-10.951 2.744-26.026 3.035-33.5.466-11.943.805-15.971 2.07-24.589 1.485-10.122 3.299-32.852 3.99-50 .355-8.8.791-16.244.969-16.543.787-1.315 1.856-76.881 1.741-122.957-.165-65.679-2.527-132.778-5.756-163.5-1.022-9.728-2.476-29.01-3.053-40.5-.915-18.207-7.881-87.045-10.474-103.5-.52-3.3-1.895-13.65-3.057-23-3.2-25.769-6.686-46.14-9.369-54.75-1.328-4.263-2.243-7.75-2.033-7.75.878 0-5.058-10.812-7.96-14.5-1.732-2.2-3.93-5.238-4.885-6.75-.955-1.513-2.406-2.75-3.224-2.75-.818 0-2.27-.937-3.227-2.081-3.271-3.912-14.362-8.774-25.015-10.965-3.149-.648-6.625-1.662-7.725-2.255-2.448-1.317-2.337-1.3-16.5-2.604-6.325-.583-23.425-2.377-38-3.988-14.575-1.611-34.15-3.216-43.5-3.567-18.009-.675-31.427-1.726-51-3.995-6.6-.765-12.675-1.368-13.5-1.341-.825.027-8.25-.243-16.5-.6-16.442-.711-57.814-2.365-61-2.439-26.755-.623-154.683-.745-172.5-.164m22.684 205.749c-.238.413-.119 1.617.266 2.677.626 1.721.769 1.748 1.344.25.354-.922.181-1.677-.384-1.677-.566 0-.75-.45-.41-1s.393-1 .118-1-.695.337-.934.75m27.316-.295c0 .772 2.976 1.392 3.399.709.254-.412-.406-.814-1.468-.894-1.062-.08-1.931.003-1.931.185m-17.861 2.512c1.53 1.275 1.863 1.978.944 2-.779.018-1.127.322-.774.676.354.353 1.298.098 2.1-.567 1.174-.975 1.893-.774 3.698 1.031 1.36 1.36 1.631 2.006.688 1.645-.853-.328-2.056-.091-2.673.526-.829.829-1.122.809-1.122-.078 0-.66.525-1.2 1.167-1.2.641 0 .877-.289.524-.643-.354-.353-1.257-.132-2.009.492-.751.623-1.651.848-2 .5-.348-.349-1.32-.065-2.158.631-1.125.934-1.524.956-1.524.083 0-.649-.45-.903-1-.563-.55.34-1 .093-1-.548s.638-.921 1.417-.622a1.526 1.526 0 001.964-.881c.307-.799.014-1.32-.667-1.187-.668.131-1.09-.358-.939-1.086.151-.729-.194-1.035-.767-.681-.572.354-.782 1.062-.465 1.574.316.512.098.931-.484.931s-1.059.825-1.059 1.833c0 1.009-.65 1.834-1.444 1.834-.795 0-1.357-.488-1.25-1.084.107-.595-.818-.942-2.056-.77-1.86.259-2.25-.16-2.25-2.417 0-2.928-.926-2.766-1.499.262a67.232 67.232 0 01-.424 2.127c-.043.157-.983-.199-2.09-.792-1.374-.735-2.565-.756-3.75-.066-.955.557-1.384 1.026-.952 1.043 1.446.056-1.335 4.03-2.82 4.03-.806 0-1.472.563-1.48 1.25-.01.774-.295.869-.75.25-.404-.55-1.954-1.024-3.445-1.054-2.141-.043-2.479.224-1.608 1.273.849 1.023.748 1.191-.442.735-1.902-.73-2.761-3.665-1.653-5.645.542-.969.377-1.476-.48-1.476-.845 0-1.189 1.001-.976 2.834.339 2.913-1.941 4.13-2.969 1.583-.277-.687-.54-.29-.583.883-.054 1.465-.882 2.287-2.637 2.623-1.774.339-2.411.107-2.079-.759.299-.78-.409-1.247-1.889-1.247-2.065 0-2.182.185-.92 1.446 2.067 2.068 1.806 2.433-1.203 1.677-1.572-.394-2.412-.281-2.066.279.321.519.167 1.597-.341 2.396-.602.947-.736-.2-.384-3.298.304-2.676.13-4.75-.399-4.75-.516 0-.876.777-.8 1.726.15 1.866-2.131 2.439-4.047 1.016-1.101-.818-5.314.632-5.314 1.828 0 .275.948-.007 2.107-.627 2.781-1.489 4.806.251 2.928 2.515-1.067 1.285-1 1.542.402 1.542 1.016 0 1.399-.457.968-1.155-.475-.768-.271-.88.61-.335.996.615 1.144.343.596-1.096-.572-1.5-.466-1.653.487-.706 1.431 1.42-.39 4.292-2.72 4.292-.758 0-1.378.45-1.378 1s-.505 1-1.122 1c-.764 0-.804-.399-.124-1.25.549-.687.658-2.15.242-3.25-.63-1.664-.88-1.371-1.486 1.741-.8 4.106-2.408 4.334-1.963.278.153-1.391-.072-2.313-.5-2.048-.427.264-.653 1.616-.5 3.005.231 2.108-.141 2.524-2.258 2.524-2.251 0-2.386.195-1.21 1.75 1.127 1.489 1.115 1.563-.077.5-2.205-1.966-4.314-1.551-3.717.731.415 1.588.056 1.942-1.812 1.787-1.281-.106-2.105-.554-1.832-.996.274-.443.889-.563 1.368-.267.478.296.809-.275.734-1.269-.13-1.718-3.743-2.705-3.743-1.022 0 .432-.562.674-1.25.536-.687-.137-1.128.341-.979 1.063.194.938-.61 1.175-2.807.829-2.565-.405-2.884-.25-1.908.925.644.776 1.639 1.121 2.212.767.619-.382.74-.156.297.56-.521.845-1.116.893-1.996.163-1.753-1.454-2.697-.165-1.507 2.058.876 1.637.643 1.812-2.004 1.503-1.647-.191-3.265-.077-3.597.254-.331.331-1.358.608-2.282.615-1.557.012-1.698 6.211-1.935 85.263l-.255 85.25h224.032l-.032-85.046c-.024-63.753-.32-84.868-1.181-84.336-.754.467-.936.157-.529-.903.428-1.115.186-1.447-.784-1.075-.771.296-2.423-.177-3.671-1.051-3.299-2.311-4.18-1.945-1.58.655 1.235 1.235 2.855 2.105 3.601 1.934.75-.173 1.061.165.696.755-.987 1.597-2.364 1.297-4.273-.933-.942-1.1-2.625-2.007-3.74-2.015-1.116-.009-1.578-.346-1.028-.75s1.146-1.397 1.324-2.207c.244-1.109-.179-1.017-1.717.375-1.995 1.806-2.031 1.799-1.63-.282.225-1.171.694-2.689 1.042-3.375.349-.685-.2-.308-1.218.837-2.057 2.315-5.41 2.865-4.601.756.28-.73.881-1.098 1.336-.817.454.281 1.084.093 1.4-.418 1.015-1.642-2.668-.507-3.923 1.209-.666.911-1.5 1.367-1.853 1.013-.354-.353-.141-1.246.471-1.984.83-1 .798-1.342-.125-1.342-.747 0-1.031-.795-.716-2.001.288-1.101.115-1.75-.383-1.441-.499.308-.914 1.546-.922 2.751-.011 1.572-.253 1.816-.857.864-.462-.73-1.646-1.18-2.631-1-.984.18-1.992-.252-2.239-.96-.316-.905.326-1.146 2.167-.812 1.515.274 2.368.073 2.026-.48-.324-.524-1.008-.695-1.52-.378-.512.316-.931.083-.931-.519 0-1.206-4.012.528-5.111 2.21-.336.513-.893.198-1.238-.702-.363-.946-.216-1.381.349-1.032.556.343.718-.071.377-.959-.456-1.189-.154-1.403 1.262-.893 1.023.369 1.584.36 1.246-.02-.338-.38-1.621-.885-2.852-1.122-1.23-.237-2.866-.953-3.635-1.591-.968-.803-1.398-.824-1.398-.069 0 .6-.629.85-1.399.554-.769-.295-1.664-.107-1.988.417-.324.525.514 1.165 1.864 1.423 1.349.258 2.581.099 2.738-.353.157-.453.96-.402 1.785.112 1.282.799 1.173 1.263-.75 3.19-1.237 1.241-2.25 1.705-2.25 1.033 0-.672.45-1.222 1-1.222s1-.4 1-.888-1.657-.777-3.682-.641c-2.024.136-4.499.033-5.5-.229-2.237-.585-2.382-2.811-.236-3.635 2.344-.9 3.126-.708 1.447.354-.809.512-1.194 1.207-.856 1.545.338.338 1.788-.558 3.221-1.991 3.049-3.049 3.535-4.666.606-2.015-1.786 1.616-2.438 1.405-2.138-.692.192-1.339-5.814 2.71-6.219 4.192-.321 1.172-.436 1.13-.527-.193-.064-.932.816-2.346 1.954-3.144 1.508-1.056 1.712-1.593.75-1.977-.98-.392-.998-.548-.07-.607.688-.043 1.25-.515 1.25-1.048 0-.532-.701-.699-1.557-.371-.857.329-1.335 1.178-1.064 1.886.272.709-.227 1.565-1.109 1.904-2.03.779-3.92-.93-2.203-1.992.853-.527.989-.357.433.542s-.42 1.069.433.542c.827-.512.908-1.101.241-1.768-.55-.55-1.489-.697-2.087-.328-1.581.978-1.331 3.523.413 4.192.825.317 1.5 1.033 1.5 1.591 0 .639-.498.602-1.342-.098-.738-.612-1.638-.818-2-.456-.362.362-.658-.516-.658-1.951 0-2.082-.409-2.53-2.027-2.219-1.192.23-1.768-.027-1.4-.624.345-.558.861-.781 1.146-.495.286.285 1.202-.164 2.036-.998 1.229-1.229 1.273-1.741.234-2.702-.994-.92-1.124-.906-.579.06 1.047 1.855-3.909 3.915-5.748 2.389-1.084-.901-1.706-.783-2.779.526-1.236 1.506-1.143 1.624.867 1.106 1.237-.319 2.25-.172 2.25.327 0 1.207-3.722 1.166-4.473-.05-.325-.526-1.249-.704-2.053-.396-.805.309-1.171 1.034-.814 1.611.406.657.16.748-.657.243-1.02-.63-.902-1.103.537-2.155 1.616-1.181 1.638-1.347.183-1.347-1.138 0-1.459-.524-1.022-1.664.407-1.059.244-1.42-.446-.994-.596.369-1.286.105-1.533-.586-.246-.691-.817-.911-1.268-.489-.452.421-.288 1.299.363 1.95 1.438 1.438 1.575 3.143.183 2.283-.887-.548-1.488 1.555-1.094 3.824.079.454-.3.55-.843.215-.649-.401-.649-1.498 0-3.204.956-2.516.89-2.576-2.182-1.961-1.742.348-3.7.191-4.351-.349-.851-.707-1.163-.385-1.107 1.145.042 1.17-.598 2.342-1.423 2.604-1.211.384-1.259.221-.25-.849.688-.729 1.25-1.671 1.25-2.094 0-.422-.562-.631-1.25-.464-.687.168-.913.116-.5-.114.413-.231.75-1.084.75-1.895 0-.812.445-1.201.989-.865.56.346.738-.042.409-.898-.473-1.233-1.065-1.053-3.238.984-1.481 1.388-3.437 2.297-4.412 2.05-.964-.244-2.177.303-2.695 1.214-.799 1.404-.92 1.324-.79-.524.084-1.199.509-1.96.945-1.691 1.086.672.969-.806-.208-2.628-.727-1.125-.973-1.166-.985-.167-.008.734-.577 1.127-1.265.875-.687-.252-1.154-.916-1.036-1.476.118-.559-.714-1.26-1.849-1.557-1.134-.297-1.83-.307-1.546-.022.285.284.041 1.884-.542 3.556-.842 2.416-1.235 2.724-1.918 1.503-.822-1.468-2.454-1.542-7.636-.343-1.302.301-2.026.121-1.691-.421.322-.522.165-.948-.351-.948-1.268 0-3.285 2.522-2.672 3.342.27.362.189.431-.179.154-.369-.276-1.752.206-3.073 1.071-2.305 1.511-2.359 1.493-1.325-.44.593-1.109 1.526-2.292 2.073-2.63 1.572-.972 1.157-2.497-.505-1.859-1.062.408-1.5-.087-1.5-1.698 0-2.578-1.004-2.075-1.433.718-.156 1.013.215 2.209.825 2.658.609.448.018.505-1.315.127s-3.331-1.533-4.44-2.567c-1.279-1.192-2.254-1.495-2.665-.83-.418.675-1.106.497-1.933-.499-.706-.851-1.729-1.547-2.272-1.547-.544 0 .074.885 1.372 1.967M491.5 273c-.34.55-.141 1 .441 1s1.059-.45 1.059-1-.198-1-.441-1-.719.45-1.059 1m33.423.417c-.042.595-.226 1.865-.409 2.82-.273 1.424.01 1.553 1.576.715 2.393-1.281 2.505-2.373.16-1.557-1.667.581-1.667.545 0-.753 2.144-1.67 2.214-2.309.25-2.309-.825 0-1.534.488-1.577 1.084m-22.189 1.841c1.417 1.566 1.771 1.595 3.242.264.958-.867 2.044-1.128 2.588-.622.515.48 1.836.506 2.936.057 2.317-.946 1.417-1.157-5.679-1.338-4.403-.112-4.585-.016-3.087 1.639M471 275c0 .55.45 1 1 1s1-.45 1-1-.45-1-1-1-1 .45-1 1m28 .559c0 .857.457 1.276 1.016.931.559-.346.758-1.047.441-1.559-.857-1.387-1.457-1.129-1.457.628m16-.714c0 .635.498 1.155 1.107 1.155s.839.698.511 1.552c-.327.854-.189 1.301.308.994.497-.307 1.131.007 1.41.698.331.821.533.704.585-.339.043-.877-.821-2.41-1.921-3.405-1.134-1.026-2-1.31-2-.655m-57.513 2.043c.667 2.166.491 2.341-1.9 1.884-3.13-.599-4.158.509-2.076 2.237 1.196.992 1.492.965 1.504-.137.013-1.124.167-1.133.855-.048.676 1.067 1.165.998 2.519-.356 1.668-1.668 1.593-2.001-1.23-5.468-.224-.275-.077.575.328 1.888m76.521-.914c-1.23.778-1.261 1.169-.178 2.234 1.074 1.057 1.254 1.042.991-.083-.176-.756.242-1.581.929-1.833.688-.252 1.25.029 1.25.625 0 .595.505 1.083 1.122 1.083.776 0 .738-.464-.122-1.5-1.445-1.741-1.962-1.809-3.992-.526m11.325.731c0 .974.66 2.431 1.466 3.236 1.287 1.287 1.374 1.167.721-.988-.982-3.235-2.187-4.474-2.187-2.248m-82.16 3.602c-.254 3.335-.04 3.341 1.673.043.857-1.648.819-2.265-.16-2.64-.841-.323-1.358.565-1.513 2.597m-22.417 1.357c.691.279.959.988.596 1.576-.394.637-.188.777.51.345 1.377-.85.55-2.62-1.171-2.506-.852.056-.834.223.065.585m4.946 4.003c.282.733.641 1.333.798 1.333.157 0 .516-.6.798-1.333.281-.734-.078-1.334-.798-1.334-.72 0-1.079.6-.798 1.334m-6.192 2.349c.346.559 1.047.758 1.559.441 1.387-.857 1.129-1.457-.628-1.457-.857 0-1.276.457-.931 1.016m118.303.667c.721.289 1.584.253 1.916-.079.332-.332-.258-.568-1.312-.525-1.165.048-1.402.285-.604.604m-145.452 1.082c-.831.536-.777 1.071.197 1.975.912.846 1.544.904 1.99.182.36-.582 1.284-.817 2.053-.522.77.296 1.399.053 1.399-.54 0-.659-1.003-.825-2.584-.428-1.675.42-2.358.283-1.941-.392.753-1.217.459-1.29-1.114-.275M408.5 291c.34.55.816 1 1.059 1s.441-.45.441-1-.477-1-1.059-1-.781.45-.441 1m-9 3c-.34.55-.141 1 .441 1s1.059-.45 1.059-1-.198-1-.441-1-.719.45-1.059 1m205.5 4c-.901.582-1.025.975-.309.985.655.008 1.469-.435 1.809-.985.767-1.242.421-1.242-1.5 0m-213 2.441c0 .793.408 1.693.907 2.001.498.309.671-.34.383-1.441-.611-2.335-1.29-2.63-1.29-.56m3.573-.482c-1.831.657-1.836.726-.107 1.39 1.987.762 2.943.301 2.388-1.152-.195-.511-1.221-.618-2.281-.238M597 301.35c0 .231 1.18 1.193 2.623 2.139 1.443.945 2.318 1.224 1.944.62-.713-1.154-4.567-3.483-4.567-2.759m-273 56.863c0 .433.788.823 1.75.866 1.056.048 1.252.28.494.585-.691.279-1.002.918-.691 1.421.509.824-1.109 1.17-5.601 1.199-1.856.012-2.365 3.834-.656 4.92.925.588.915.769-.046.781-.687.008-1.25.481-1.25 1.05 0 .709.62.704 1.963-.015 1.149-.615 1.727-1.663 1.395-2.53-.312-.813-.965-1.233-1.451-.932-.486.3-.596-.205-.244-1.123.551-1.435.837-1.336 2.031.698 1.197 2.039 1.312 2.078.833.284-.369-1.385-.086-2.084.846-2.084 1.631 0 1.557 1.842-.158 3.908-.659.794-.902 1.739-.54 2.101.362.362-.204.725-1.258.806-1.054.081-2.592.24-3.417.352-.825.112-1.999.271-2.61.352-.658.088-.994 1.771-.825 4.136.156 2.193-.176 4.272-.738 4.619-.66.408-.838-.739-.503-3.238.42-3.122.294-3.561-.652-2.273-.645.878-1.896 1.49-2.78 1.36-1.026-.152-1.569.452-1.5 1.666.059 1.047.558 1.785 1.108 1.641.55-.145.887-.6.75-1.013-.137-.413.2-.75.75-.75s1 1.125 1 2.5.525 2.5 1.167 2.5c.641 0 .877.289.524.643-.354.353-1.329.073-2.167-.623-1.239-1.029-1.53-1.008-1.557.108-.021.845-.789.466-2-.989-1.082-1.298-1.967-1.834-1.967-1.191 0 .644-.562.885-1.25.537-.687-.348-.376.075.691.941 2.718 2.204 2.895 4.475.296 3.795-1.32-.345-1.811-.15-1.379.549.37.599-.233 1.373-1.343 1.725-1.108.352-2.015 1.045-2.015 1.541s.592.674 1.316.396c.723-.277 2.441.079 3.817.793 2.392 1.241 2.424 1.378.75 3.142-1.692 1.782-1.736 1.765-1.306-.512.245-1.295.178-1.792-.149-1.105-.739 1.554-3.428 1.654-3.428.128 0-.776-.464-.738-1.5.122-.825.685-1.493 1.752-1.485 2.372.009.621.452.453.985-.372.792-1.225.972-1.107.985.643.008 1.179.719 2.413 1.578 2.743.86.33 1.284 1.053.941 1.607-.795 1.287-3.504 1.317-3.504.038 0-.532.788-.686 1.75-.34.962.345 1.452.296 1.088-.11-.364-.406-1.757-.858-3.095-1.005-2.006-.22-2.39.136-2.183 2.021.138 1.259.588 2.834 1 3.5.46.744.33.953-.336.541-.597-.369-1.373-.206-1.724.362s-.98.821-1.399.563c-.976-.604-.756 2.569.296 4.271.945 1.528-.181 3.061-1.201 1.637-1.265-1.765-2.778-1.366-2.939.774-.088 1.158.606 2.688 1.542 3.399 1.062.807 1.232 1.304.451 1.324-.687.018-1.25.509-1.25 1.091s.41.806.911.496c1.683-1.04-2.877 7.307-4.716 8.634-1 .721-2.182 1.918-2.627 2.661-.657 1.095-.406 1.134 1.326.207 1.725-.924 2.249-.848 2.726.394.324.846.987 1.292 1.473.991.486-.3.596.205.244 1.123-.548 1.428-.826 1.327-1.917-.698-1.128-2.094-1.353-2.166-1.952-.623-.373.96-1.049 1.515-1.504 1.234-.454-.281-1.115-.042-1.469.53-.354.573-.068.918.635.767.704-.151 1.315.175 1.36.725.044.55.643 2.012 1.331 3.25 1.063 1.915 1.012 2.25-.345 2.25-.877 0-1.316-.45-.976-1 .343-.555-.409-1.007-1.691-1.015-1.814-.012-1.994-.215-.838-.946.809-.512 1.122-1.279.696-1.706-1.397-1.397-2.469 1.869-1.604 4.886.702 2.447.611 2.755-.53 1.809-1.105-.918-1.273-.752-.856.846.29 1.108 1.095 1.767 1.82 1.489.873-.335 1.251.321 1.151 1.997-.135 2.272-.299 2.36-1.828.976-1.534-1.387-1.629-1.323-1.093.728.397 1.517.223 2.023-.533 1.556-.617-.381-2.037.223-3.158 1.344-1.432 1.432-1.623 2.036-.643 2.036.766 0 1.649-.667 1.962-1.483.679-1.77 3.645-.911 3.645 1.055 0 1.929-3.697 3.798-4.294 2.17-.351-.955-.774-.919-1.831.155-.756.768-.86 1.108-.23.755 1.387-.776 2.669 2.036 1.311 2.875-.526.325-.956 1.047-.956 1.603 0 .557.675.338 1.5-.487s1.5-1.982 1.5-2.572c0-.589.45-1.071 1-1.071 1.439 0 1.229 1.138-.757 4.107-.958 1.433-2.467 2.495-3.351 2.359-1.029-.158-1.569.438-1.5 1.656.059 1.047.558 1.785 1.108 1.641.55-.145.888-.6.75-1.013-.137-.412.2-.75.75-.75s1 1.152 1 2.559c0 1.451.433 2.292 1 1.941.55-.34 1-.141 1 .441 0 1.422-1.3 1.337-2.947-.191-1.103-1.023-1.229-.916-.697.59 1.128 3.192-.576 4.077-2.015 1.047-.754-1.588-1.166-2.132-.916-1.21.251.922-.192 2.215-.984 2.872-1.827 1.516-1.838 3.377-.03 4.877.965.801 1.616.839 2.059.123.356-.577-.054-1.049-.911-1.049-1.727 0-2.131-2.529-.559-3.5.55-.34 1-.093 1 .548s.661.912 1.468.603c.807-.31 1.734-.133 2.059.393.325.526.114.956-.468.956-.582 0-.963.337-.847.75.117.413-.398 1.875-1.145 3.25l-1.358 2.5 2.145-1.905c2.419-2.147 2.961-1.267.646 1.048-1.72 1.72-2.02 5.357-.441 5.357.582 0 .784-.445.448-.989-.353-.57.057-.732.97-.381 1.42.545 1.41.732-.099 1.836-1.181.863-1.339 1.44-.529 1.94 1.683 1.041 1.406 2.398-.566 2.778-1.567.302-1.578.461-.128 1.816 1.45 1.354 1.417 1.637-.367 3.184-2.088 1.811-2.018 5.5.096 5.041.695-.151.975.194.621.767-.354.572-1.092.763-1.641.424-.549-.339-.914-.009-.812.734.359 2.617-.063 3.961-1.052 3.35-.55-.34-1-.141-1 .441 0 1.369 1.304 1.355 2.687-.028.743-.743 1.29-.759 1.728-.05.353.57-.272 1.525-1.387 2.122S274 510.043 274 511.231c0 1.984.304 1.878 3.706-1.285 2.039-1.895 3.168-2.73 2.509-1.854-.659.876-.864 1.926-.456 2.333.407.408.091.592-.703.408-.914-.21-1.698.77-2.132 2.667-.378 1.65-.741 2.443-.806 1.761-.065-.681-1.218-1.148-2.563-1.036-2.027.167-2.246.465-1.283 1.739 1.91 2.525 2.076 2.617 1.419.786-.88-2.451.491-2.125 2.458.585 1.062 1.465 1.45 3.31 1.091 5.191-.471 2.461-.664 2.617-1.231 1-.632-1.802-.708-1.785-1.248.279-.316 1.209-.257 2.002.13 1.762.387-.239 1.358-.022 2.157.484.996.63 1.06.923.202.934-.712.008-.284.981.994 2.259 1.235 1.235 2.922 2.116 3.75 1.959 1.269-.241 1.284-.137.091.666-.778.524-2.231.795-3.229.603-.998-.192-2.118.143-2.489.744-.405.655-.214.807.478.379.635-.392 1.155-.21 1.155.405s.337.91.75.655.838 1.957.946 4.915c.108 2.958-.237 5.646-.766 5.973-.529.327-.704 1.014-.387 1.526.316.512-.002.931-.706.931-.705 0-.274.706.957 1.568 1.234.865 1.942 2.099 1.576 2.75-.448.799-.227.777.683-.068 2.453-2.276 3.041-1.296.933 1.555-1.231 1.665-1.809 3.493-1.423 4.5.757 1.972 2.423 2.272 2.467.445.017-.687.495-.453 1.062.521.567.974 1.464 1.503 1.994 1.176.53-.328.899-.225.82.229-.361 2.08.213 3.324 1.535 3.324.793 0 1.695.41 2.005.912.61.988-.916.837-3.69-.366-.96-.415-1.496-1.158-1.191-1.651.304-.492.076-.895-.506-.895s-1.059.661-1.059 1.469c0 .941-.628 1.271-1.75.918-1.644-.517-1.647-.465-.043.86 1.567 1.295 1.575 1.542.103 3.015-1.473 1.472-1.449 1.578.293 1.288 1.043-.173 1.802-.765 1.686-1.314-.115-.55 1.083-.946 2.664-.882 1.58.065 2.656.469 2.391.898-.265.429-.789.596-1.163.369-.949-.573-2.75 1.616-2.575 3.129.079.688.2 1.727.269 2.309.069.582.495.831.947.551.452-.279 1.622.427 2.6 1.57 1.395 1.63 1.502 2.249.493 2.873-.985.608-1.014 1.122-.124 2.195.885 1.067.87 1.727-.065 2.778-1.025 1.151-.956 1.174.421.139.965-.726 1.434-2.051 1.133-3.202-.305-1.165-.013-1.963.717-1.963.798 0 1.075 1.054.79 3-.242 1.65-.083 3 .355 3 1.421 0-.263 2.872-1.977 3.371-.916.267-.061.258 1.899-.019 2.634-.373 3.939-.043 5 1.264.897 1.104.967 1.486.186 1.017-.687-.413-1.25-.274-1.25.308 0 .582.563 1.104 1.25 1.159.688.055.158.404-1.176.777-3.058.855-3.942 3.123-1.216 3.123 1.113 0 2.349.526 2.747 1.17.492.796.169.957-1.01.505-1.48-.568-1.433-.285.323 1.948 1.13 1.436 1.766 3.079 1.414 3.649-.371.601-.155.737.513.323.635-.392 1.155-.21 1.155.405s.457.835 1.016.49c.559-.346.715-1.117.346-1.714-.398-.644-.206-.798.472-.378.818.505.648 1.465-.595 3.365-1.14 1.744-1.27 2.371-.377 1.82 1.747-1.077 3.399 1.398 2.032 3.044-.66.796-.636 1.415.074 1.853.585.362.804 1.08.485 1.596-.319.516.121 1.207.978 1.536.857.329 1.309 1 1.004 1.493-.304.492-.113.895.424.895.538 0 1.694.275 2.571.611 1.166.448 1.427.18.974-1-.34-.886-.12-1.611.489-1.611s1.107.723 1.107 1.607c0 1.002.553 1.395 1.468 1.044.807-.31 1.734-.133 2.059.393.325.526.114.956-.468.956-.582 0-1.059.675-1.059 1.5 0 1.447-1.118 1.916-3.75 1.575-.687-.09-1.25.559-1.25 1.44 0 .922.473 1.311 1.112.916.611-.378 1.488-.079 1.947.664.5.809.366 1.642-.334 2.075-.786.486-.523.954.803 1.428 1.085.388 2.807 1.425 3.827 2.304 1.02.879 2.145 1.462 2.5 1.295.355-.166.79.396.968 1.25.178.854-.159 1.553-.75 1.553a1.07 1.07 0 00-1.073 1.059c0 .582.45.781 1 .441.87-.538 1.475 1.49 1.118 3.75-.065.413.381.75.99.75.68 0 .869-.956.488-2.473-.491-1.957-.299-2.35.921-1.882.946.363 1.322 1.288.972 2.391-.453 1.427-.147 1.687 1.485 1.26 1.132-.295 2.349-1.01 2.706-1.587.405-.656.005-.802-1.068-.39-.949.364-1.462.247-1.148-.261.313-.506.114-1.201-.442-1.545-1.66-1.025-3.441-4.819-2.044-4.354.645.215 1.122.733 1.061 1.152-.123.844 2.491 3.689 3.39 3.689.314 0 .571-61.902.571-137.559 0-109.781-.252-137.407-1.25-136.808-.984.591-.994.434-.047-.737 1.804-2.231 1.23-5.767-.91-5.605-.986.074-1.793.489-1.793.922m-2.436 1.08c.376.986.935 1.541 1.243 1.233.308-.307.001-1.114-.683-1.793-.988-.98-1.102-.865-.56.56m353.436.04c0 .927.777 1.66 1.75 1.652.999-.009 1.321-.336.75-.762a12.294 12.294 0 01-1.75-1.651c-.413-.498-.75-.155-.75.761m2.015 4.476c-.008.72-.459 1.035-1.001.7-.646-.4-.993 46.072-1.007 134.779l-.021 135.389 2.112 1.912c2.595 2.348 2.488 2.351 4.309-.089 1.477-1.978 1.488-1.977.956.137-.295 1.176-.053 2.436.538 2.802.687.424.838.044.418-1.051-.471-1.226-.297-1.492.611-.931 1.002.619 1.03.337.135-1.336-1.279-2.389-2.161-2.625-3.778-1.008-1.19 1.19-3.287.414-3.287-1.216 0-.542.563-.912 1.25-.822 2.797.363 3.421-.208 3.256-2.98-.123-2.055.217-2.755 1.16-2.393.766.294 1.334-.163 1.334-1.074 0-1.332.403-1.402 2.527-.434 1.87.852 2.228 1.432 1.375 2.229-.828.774-1.282.724-1.612-.179-.254-.691-.894-.989-1.424-.661-.593.366-.513 1.138.208 2.006.898 1.082.881 1.761-.074 2.911-.86 1.036-.898 1.5-.122 1.5.617 0 1.122-.381 1.122-.847 0-.466.932-1.921 2.07-3.234l2.07-2.387-2.211-1.791c-3.273-2.65-1.722-3.145 1.668-.532 2.511 1.935 2.7 1.971 1.403.264-.825-1.085-1.95-2.31-2.5-2.723-1.747-1.31 1.674-2.727 3.817-1.58 1.484.794 1.745.739 1.14-.24-.556-.9-.3-1.084.879-.631.915.351 1.664.202 1.664-.33 0-.533-.727-.969-1.617-.969-1.185 0-1.489-.667-1.138-2.5.32-1.676.029-2.5-.884-2.5-.748 0-1.361-.436-1.361-.969 0-.532.749-.681 1.664-.33 1.208.464 1.44.276.846-.686-.549-.887-.433-1.085.352-.6.644.398.941 1.095.66 1.549-.281.455.199 1.099 1.066 1.431 2.116.812 2.119.812 2.754-.844.372-.969.076-1.265-.893-.893-.918.352-1.449-.072-1.449-1.158 0-1.198.527-1.53 1.75-1.105 1.537.536 1.563.458.214-.643-.845-.688-1.365-2.093-1.154-3.12.264-1.293-.003-1.631-.868-1.096-.792.489-.999.365-.564-.338.377-.611 1.301-.875 2.053-.586.752.288 1.664.044 2.027-.544.363-.587.157-1.068-.458-1.068s-.835-.457-.49-1.016c.346-.559 1.095-.728 1.666-.375.663.41.795-.126.364-1.484-.489-1.54-.25-2.125.868-2.125 1.098 0 1.444-.792 1.202-2.75-.187-1.513-.144-1.956.096-.985.241.97.855 1.506 1.365 1.191.511-.316.943.015.961.735.022.929.386.844 1.25-.29.67-.88 1.183-3.446 1.141-5.702-.043-2.257.295-3.873.75-3.592.455.281.827-.191.827-1.048s-.436-1.559-.969-1.559c-1.996 0 .273-3.003 2.326-3.079 1.179-.043 1.606-.297.949-.565-.656-.267-.944-1.136-.638-1.932.389-1.015.073-1.262-1.057-.828-.886.34-1.611.393-1.611.118s.669-.757 1.487-1.071c.937-.359 2.071.434 3.064 2.143.867 1.493 1.307 1.85.979.794-.331-1.062-.024-2.333.686-2.844.92-.663.788-.765-.466-.362-1.149.37-1.75.038-1.75-.964 0-.841-.445-1.253-.989-.917-.584.361-.723-.081-.339-1.081.596-1.553.771-1.537 2.123.198 1.387 1.779 1.437 1.782.836.05-.89-2.57.506-4.558 1.471-2.094.628 1.605.769 1.646.828.243.094-2.262-1.94-3.412-3-1.695-.716 1.157-1.047 1.154-2.138-.019-.966-1.038-.976-1.21-.042-.683.688.388 1.25.229 1.25-.353s.649-1.059 1.443-1.059c1.506 0 4.568-3.691 4.542-5.473-.009-.565-.452-.352-.985.473-.838 1.297-.971 1.275-.985-.167-.008-.916-.489-1.824-1.069-2.018-.718-.239-.738-1.141-.063-2.833.921-2.309 1.592-1.315 1.192 1.768-.09.688.334 1.25.94 1.25.607 0 .778-.526.38-1.17-.491-.794-.171-.958.993-.511.944.362 1.462.247 1.152-.255-.311-.502.229-1.143 1.198-1.423 1.086-.315.839-.44-.646-.326-3.183.245-3.669-3.797-.707-5.872 2.091-1.464 1.694-1.725-2.612-1.712-.95.002-1.482-.393-1.181-.879.3-.487.937-.643 1.416-.347.478.295 1.381-.26 2.006-1.234 1.063-1.655 1.101-1.656.593-.021-.299.962-.056 1.75.541 1.75.612 0 .881-1.067.617-2.451-.258-1.347-.198-2.36.133-2.25.331.111.685-.249.786-.799.102-.55-.461-.868-1.25-.706-.789.161-1.434-.203-1.434-.809 0-.607-.45-.825-1-.485-.55.34-1 .231-1-.241s1.568-.859 3.485-.859c1.917 0 3.005.297 2.417.661-.688.425-.54.864.416 1.231 1.948.747 1.583-1.759-.633-4.347-.927-1.082-1.678-2.75-1.67-3.706.013-1.489.155-1.523.985-.239.533.825.976 1.147.985.715.008-.432.874-.325 1.925.237 1.566.838 1.849.709 1.576-.715a33.762 33.762 0 01-.441-3.237c-.06-.825-.755-2.354-1.546-3.398-1.244-1.644-1.675-1.715-3.218-.531-1.023.786-.823.29.469-1.166 1.237-1.394 2.257-3.18 2.265-3.969.013-1.236.144-1.234.934.016.506.799.726 1.764.491 2.145-.236.382.281.966 1.148 1.298 2.496.958 2.676.726.85-1.1-1.064-1.064-1.29-1.844-.601-2.074 1.87-.623-1.061-2.975-3.057-2.453-1.135.297-1.78-.09-1.78-1.068 0-.843-.562-1.783-1.25-2.088-.839-.372-.757-.524.25-.464 3.733.222 4.296-.087 3-1.648-.744-.897-.829-1.5-.211-1.5.863 0 .949-1.975.172-4-.105-.275-.101-1.349.01-2.388.111-1.038-.4-2.292-1.135-2.787-.839-.565.015-.666 2.299-.272 2.054.354 3.904.193 4.252-.37.359-.581-.171-.791-1.273-.503-1.038.272-2.234-.064-2.656-.747-.536-.869-.345-.997.637-.427.773.448 1.083.458.69.023-.393-.436-.256-1.745.305-2.91.992-2.06.977-2.065-.535-.178-1.524 1.903-1.555 1.898-1.555-.25 0-1.205-.027-2.528-.059-2.941-.032-.413.98-1.043 2.25-1.4 1.606-.453 1.776-.681.559-.75-1.938-.111-2.336-1.62-.695-2.634 1.779-1.1.58-3.748-1.866-4.12-1.454-.222-2.065.045-1.649.719.364.589 1.292.83 2.061.535.822-.316 1.399.092 1.399.99 0 .841-.461 1.243-1.025.895-.563-.349-.96-.263-.881.191.441 2.542-.347 3.917-2.331 4.067-1.231.093-1.761-.149-1.177-.537 2.112-1.407 2.281-4.105.406-6.49-2.334-2.966-.892-5.268 2.247-3.588 1.063.569 2.194.773 2.513.453.32-.32-.056-.588-.835-.596-1.172-.013-1.158-.202.083-1.095 1.266-.91 1.227-.991-.25-.516-1.128.363-1.75.041-1.75-.905 0-.808-.525-1.469-1.167-1.469-.641 0-.829-.337-.416-.75 1.296-1.296 3.021-.852 4.8 1.235.944 1.108 1.731 1.617 1.75 1.13.018-.487-1.073-1.911-2.424-3.163-2.109-1.954-2.251-2.45-1-3.487.801-.666 1.457-1.691 1.457-2.279 0-.587-.638-.195-1.418.871-.802 1.097-1.78 1.555-2.25 1.055-.458-.487-.269-1.087.418-1.332 2.188-.782 1.35-2.447-.875-1.74-1.633.518-1.929.359-1.279-.683.465-.746.97-2.154 1.122-3.128.262-1.68.134-1.683-2.471-.067-1.511.938-2.22 1.118-1.575.4.644-.718.941-1.908.658-2.644-.349-.911.135-1.214 1.514-.948 1.115.215 2.617-.321 3.338-1.19 1.159-1.395.934-1.524-1.933-1.103-3.086.453-3.164.387-1.595-1.347 1.191-1.316 2-1.532 2.909-.778.771.64 1.485.68 1.842.101.74-1.196-1.717-2.171-4.245-1.684-1.546.298-1.819-.056-1.37-1.773.308-1.179.744-1.594.969-.92.224.673.809 1.224 1.3 1.224s.435-1.2-.125-2.672c-1.055-2.776-.537-5.819.845-4.965.436.27.792-.377.792-1.436 0-1.277-.687-1.922-2.035-1.912-1.693.013-1.784.185-.536 1.019 1.304.873 1.259 1.189-.35 2.418-1.018.778-1.61 1.804-1.316 2.279.294.476.071 1.518-.494 2.317-.839 1.184-.925 1.129-.466-.298.312-.97.057-1.75-.572-1.75-.624 0-.854-.281-.511-.624.343-.343-.166-1.356-1.131-2.25-.965-.894-1.136-1.205-.381-.69 2.276 1.55 3.31-1.439 1.387-4.01-1.46-1.952-1.75-2.023-2.346-.577-.542 1.318-.687 1.349-.718.151-.053-2.067 2.414-5.133 3.407-4.234.446.403.488.172.092-.516-.395-.687-.216-1.25.399-1.25s.81-.498.434-1.107c-.376-.608-.965-.721-1.309-.25-.697.956-3.125 1.631-3.125.868 0-1.165 3.433-4.361 4.186-3.896.456.282.296-.659-.357-2.09-.662-1.454-1.755-2.384-2.475-2.107-.71.272-1.574.035-1.921-.527-.392-.633-1.442-.331-2.765.794-1.253 1.066-1.68 1.196-1.035.315 1.764-2.408 2.124-6.503.691-7.842-.728-.68-1.323-1.782-1.323-2.447.001-.666 1.195.139 2.655 1.789 1.831 2.071 2.413 2.381 1.879 1-.425-1.1-.795-2.543-.821-3.206-.026-.663-.422-.974-.881-.691-.458.283-1.344.199-1.968-.186-.736-.455-.297-1.194 1.25-2.101l2.385-1.399-2.375.648c-1.495.409-2.143.273-1.749-.365.374-.605-.152-.81-1.307-.508-1.597.418-1.843.097-1.415-1.843.414-1.87.301-2.043-.552-.849-.919 1.287-1.074 1.242-1.087-.317-.011-1.402-.506-1.662-2.161-1.137-1.873.595-1.968.49-.75-.827.768-.83 1.81-1.257 2.316-.95.508.309.625-.209.261-1.157-.364-.949-.247-1.462.261-1.148.506.313 1.237.055 1.625-.573.495-.801-.371-1.016-2.902-.72-3.61.421-5.806-1.348-3.467-2.793.738-.457.827-.216.265.717-.689 1.143-.485 1.132 1.095-.062 2.931-2.214 3.074-2.399 1.4-1.804-.848.302-2.423-.106-3.5-.906-1.831-1.361-1.764-1.413 1.042-.808 2.276.491 2.638.39 1.5-.419-.825-.586-2.288-1.072-3.25-1.081-.962-.008-1.75-.435-1.75-.949 0-.513 1.237-.729 2.75-.478 1.99.329 2.349.191 1.298-.5-.799-.526-1.761-.766-2.137-.533-.376.233-1.298-.333-2.048-1.258-.75-.924-.907-1.409-.35-1.077.556.333 2.131-.058 3.5-.868 2.468-1.462 2.46-1.469-1.013-.914-2.493.398-3.069.276-2-.424 1.076-.706 1.133-.988.202-.999-1.525-.018-4.401-6.27-3.225-7.01.441-.278.205-1.058-.524-1.735-1.064-.987-1.336-.888-1.376.5-.121 4.153-.523 5.113-2.336 5.587-1.875.491-1.877.449-.083-1.596 1.693-1.93 1.7-2.048.092-1.462-.962.351-1.75.364-1.75.03 0-.335.788-1.212 1.75-1.95 1.53-1.172 1.561-1.467.25-2.345-.848-.567-.997-1.01-.344-1.019.871-.011.874-.612.012-2.439-1.41-2.987-2.571-1.454-2.127 2.808.178 1.714.084 2.263-.21 1.221-.429-1.526-.706-1.623-1.417-.5-.738 1.165-.874 1.147-.828-.105.03-.825.413-2.4.852-3.5.597-1.499.266-2.324-1.321-3.292-2.074-1.265-2.069-1.278.251-.645 1.737.474 2.248.286 1.917-.708-.304-.911-1.983-1.31-5.119-1.216-5.039.149-5.127.09-3.736-2.509.565-1.054.571-2.307.016-3.184-.687-1.084-.919-1.119-.931-.137m3.372.941c.402.688.303 1.25-.221 1.25-1.884 0-1.937 2.592-.056 2.733 1.039.079 1.897-.392 1.905-1.045.009-.71.406-.584.985.312.704 1.09.974 1.142.985.191.008-.733.523-.995 1.17-.596.737.456.882.273.399-.507-.415-.672-1.01-.965-1.323-.652-.313.312-1.47-.22-2.572-1.184-1.101-.964-1.674-1.189-1.272-.502m-364.308 1.833c.048 1.165.285 1.402.604.605.289-.722.253-1.585-.079-1.917-.332-.332-.568.258-.525 1.312m.516 6.571c.299.483 1.012.589 1.586.234.573-.354 1.477-.024 2.007.734.793 1.133.891 1.111.555-.122-.225-.825-1.372-1.55-2.55-1.612-1.177-.062-1.896.283-1.598.766m365.831 1.542c.137.932.737 1.858 1.333 2.057.649.216.868-.464.546-1.696-.646-2.469-2.233-2.774-1.879-.361M309 384.941c0 .518.445 1.216.989 1.552.566.35.734-.051.393-.941-.665-1.732-1.382-2.049-1.382-.611M696.5 387c-.34.55-.141 1 .441 1s1.059-.45 1.059-1-.198-1-.441-1-.719.45-1.059 1m-390.5.553c0 .207.952.886 2.116 1.509 1.646.881 2.022.853 1.695-.128-.369-1.108-3.811-2.355-3.811-1.381m386.507 2.436c-.35.566.051.734.941.393 1.732-.665 2.049-1.382.611-1.382-.518 0-1.216.445-1.552.989M303 391.059c0 .582.45.781 1 .441s1-.816 1-1.059-.45-.441-1-.441-1 .477-1 1.059m390.638 2.441c.317.825.753 1.5.969 1.5.216 0 .393-.675.393-1.5s-.436-1.5-.969-1.5c-.532 0-.709.675-.393 1.5m-394.914 7.727c.554.7 1.257 1.948 1.563 2.773.379 1.024.58.82.634-.643.043-1.179-.66-2.426-1.562-2.773-1.228-.471-1.388-.309-.635.643m-1.645 5.523c-.053 1.512.495 2.245 1.671 2.235 1.079-.01 1.328-.297.65-.75-.605-.404-1.357-1.41-1.671-2.235-.382-1.002-.597-.753-.65.75m-4.549 5.201c-.309.501-.105 1.193.454 1.539.559.345 1.023.264 1.031-.181.009-.445.402-.198.875.548s1.112.949 1.42.45c.308-.499-.289-1.438-1.328-2.086-1.081-.676-2.13-.791-2.452-.27m-3.905 3.847c-.271.439-.093 1.445.397 2.237.671 1.086.848.889.721-.798-.183-2.427-.364-2.66-1.118-1.439m417.822.952c.148.962-.229 2.122-.839 2.576-.736.549-.636.699.296.449 1.996-.537 3.462-4.775 1.652-4.775-.758 0-1.258.788-1.109 1.75m7.886 1.706c0 .801.383 1.22.85.931.467-.289.591-.944.274-1.456-.808-1.308-1.124-1.161-1.124.525m-426.32 2.573c1.313.83 1.311.944-.013.971-1.315.027-1.318.146-.026.963.971.614 1.732.524 2.234-.266 1.188-1.869.957-2.259-1.445-2.44-1.759-.132-1.919.033-.75.772m419.571-.165c-.339.549-.111 1.31.506 1.692.796.492.728.945-.233 1.554-1.143.723-1.142.862 0 .875.813.009 1.118.637.761 1.567-.333.868-.17 1.289.369.956.53-.328.807-1.944.615-3.592-.397-3.412-1.12-4.505-2.018-3.052m5.288 4.386c1.51 1.925 4.128 2.363 4.128.691 0-.582-.47-.769-1.044-.414-.574.355-1.811.044-2.75-.691-1.537-1.203-1.57-1.162-.334.414m-.872 4.68c0 1.547.584 1.999 2.388 1.85 1.518-.126 2.205-.678 1.884-1.514-.411-1.071-.8-1.079-2.081-.042-1.045.847-1.336.878-.867.095.39-.649.251-1.463-.308-1.809-.562-.347-1.016.287-1.016 1.42M287.5 434c-.34.55-.141 1 .441 1s1.059-.45 1.059-1-.198-1-.441-1-.719.45-1.059 1m-7.862 3.5c.317.825 1.033 1.5 1.591 1.5.586 0 .489-.635-.229-1.5-.685-.825-1.401-1.5-1.591-1.5-.19 0-.087.675.229 1.5m-.607 3c0 .55.436 1.675.969 2.5.533.825.969 1.05.969.5s-.436-1.675-.969-2.5c-.533-.825-.969-1.05-.969-.5m437.969.933c0 .992.567 1.287 1.664.866 1.208-.464 1.44-.276.846.686-.545.881-.433 1.085.335.61 1.588-.981 1.465-1.359-.845-2.595-1.588-.85-2-.76-2 .433M283.638 454.5c-.316.825-.187 1.5.286 1.5.474 0 1.121-.675 1.438-1.5.316-.825.187-1.5-.286-1.5-.474 0-1.121.675-1.438 1.5m-3.559 10.083c.048 1.165.285 1.402.604.605.289-.722.253-1.585-.079-1.917-.332-.332-.568.258-.525 1.312M725 464c0 .55.477 1 1.059 1s.781-.45.441-1-.816-1-1.059-1-.441.45-.441 1m-444.911 8.167c.54 1.008 1.094 1.833 1.232 1.833.138 0 .25-.825.25-1.833 0-1.009-.554-1.834-1.231-1.834-.885 0-.955.517-.251 1.834m441.464 11.748a1.116 1.116 0 00.362 1.532c.521.322 1.21.159 1.532-.362a1.116 1.116 0 00-.362-1.532 1.116 1.116 0 00-1.532.362m-448.303.747c-1.43.577-1.699 2.338-.357 2.338.491 0 1.152-.675 1.469-1.5.316-.825.477-1.464.357-1.421-.121.043-.781.306-1.469.583m1.357 4.92c-.85 2.215-.756 3.418.268 3.418.481 0 .875-1.125.875-2.5 0-2.896-.294-3.132-1.143-.918m445.472 7.001c.048 1.165.285 1.402.604.605.289-.722.253-1.585-.079-1.917-.332-.332-.568.258-.525 1.312M271 496.393c0 .216.698.661 1.552.989.89.341 1.291.173.941-.393-.587-.951-2.493-1.406-2.493-.596m7 7.016c0 .19.675.906 1.5 1.591.865.718 1.5.815 1.5.229 0-.558-.675-1.274-1.5-1.591-.825-.316-1.5-.419-1.5-.229m447.638 3.091c.317.825.051 1.5-.59 1.5s-.858.498-.482 1.107c.477.771.944.696 1.544-.25 1.156-1.824 1.114-3.857-.079-3.857-.532 0-.709.675-.393 1.5m1.926 2.207c-.542 1.425-.428 1.54.56.56.684-.679.991-1.486.683-1.793-.308-.308-.867.247-1.243 1.233m-7.219 3.836c-.326.849-.369 1.767-.096 2.04.274.273.737-.422 1.03-1.543.624-2.383-.069-2.751-.934-.497m4.905 2.85c0 2.109.298 2.384 1.744 1.61.958-.513 2.027-.648 2.375-.301.347.347.631-.092.631-.976 0-.885-.52-1.929-1.155-2.321-.715-.443-.883-.275-.44.44.899 1.456-.645 1.515-2.08.08-.767-.767-1.075-.346-1.075 1.468m-447.25.805c0 1.174.337 1.728.75 1.23.413-.497 1.125-1.185 1.584-1.527.458-.343.121-.896-.75-1.23-1.141-.438-1.584-.01-1.584 1.527m449 2.635c0 .459.655.834 1.456.834.801 0 1.224-.375.941-.834-.283-.458-.938-.833-1.456-.833s-.941.375-.941.833M275 520c-.901.582-1.025.975-.309.985.655.008 1.469-.435 1.809-.985.767-1.242.421-1.242-1.5 0m3 3.5c0 .825.436 1.5.969 1.5.532 0 .709-.675.393-1.5-.317-.825-.753-1.5-.969-1.5-.216 0-.393.675-.393 1.5m443.25 5.231c-.687.239-1.25.903-1.25 1.475 0 .63.586.553 1.49-.198 1.232-1.022 1.654-.827 2.437 1.128.905 2.261.949 2.271 1.01.221.066-2.232-1.54-3.375-3.687-2.626m-446.98 2.394c-.019 2.445.098 2.514 1.696 1 .944-.894 1.507-2.011 1.25-2.482-.256-.471-.805-.308-1.22.363-.576.933-.866.899-1.23-.143-.262-.75-.485-.182-.496 1.262M276.5 536c-.34.55.11 1 1 1s1.34-.45 1-1c-.34-.55-.79-1-1-1-.21 0-.66.45-1 1m113.515 78.25c.009 47.223.392 79.846.948 80.724.512.81.567 1.71.121 2-.446.289-.454 1.426-.018 2.526.601 1.516.81 1.606.864.372.081-1.885 3.07-4.801 3.07-2.994 0 .617-.408 1.122-.906 1.122-.499 0-.662.936-.363 2.081.368 1.406 1.13 1.927 2.35 1.608 2.155-.563 6.174 3.339 4.163 4.043-.691.241-.985.877-.654 1.413.338.547 1.204.181 1.974-.835 1.795-2.368 1.777-3.31-.064-3.31-1.776 0-1.986-1.582-.345-2.595.715-.443.883-.275.44.44-.925 1.498 1.856 1.509 4.721.019 2.071-1.077 2.059-.999-.237 1.496-2.625 2.855-2.352 4.771.302 2.116 1.54-1.54 2.161-.906 1.737 1.774a.687.687 0 00.632.807c5.377.412 9.723 1.094 10.181 1.599.313.345-1.231.36-3.431.034-3.492-.518-3.723-.441-1.816.608 1.202.661 2.214 1.539 2.25 1.952.036.413.403.638.816.5a.793.793 0 00.5-1c-.457-1.37 1.009-.775 2.464 1 .789.962 1.153 1.193.808.511-.729-1.442 1.691-.734 5.228 1.529 1.353.866 2.25 1.016 2.25.377 0-1.11 4.215-.106 8.751 2.085 2.027.979 2.102 1.253.746 2.751-1.301 1.438-1.307 1.664-.045 1.664.803 0 1.26-.324 1.015-.72-.245-.396.22-1.272 1.033-1.947s1.231-1.626.93-2.113c-.301-.488-.071-.887.511-.887s1.059.505 1.059 1.122c0 .78.455.745 1.489-.113.819-.68 1.246-1.629.948-2.111-.297-.481.195-.593 1.095-.247 1.309.502 1.369.796.302 1.473-1.022.647-.924.849.416.861 1.987.017 2.213 1.281.727 4.058-.826 1.543-.729 1.799.5 1.328 1.025-.394 1.528.022 1.538 1.272.013 1.536.177 1.603.948.383.611-.967.53-1.721-.237-2.195-1.941-1.2-.046-2.073 2.057-.947 1.075.575 2.31.724 2.746.331.435-.393.468-.152.072.535-.479.833-.012 1.25 1.399 1.25 1.165 0 1.859-.419 1.543-.931-.976-1.579 1.298-2.224 3.564-1.012 1.683.901 2.333.857 3.005-.204.633-.998.861-1.025.873-.103.008.688.635 1.25 1.393 1.25 2.137 0 3.786 2.436 2.511 3.711-.751.751-.737 1.265.049 1.75.631.391.993.115.837-.637-.181-.872.577-1.229 2.225-1.046 2.183.243 2.275.14.729-.811-.974-.6-1.51-1.512-1.191-2.028.319-.517-.197-.939-1.146-.939-2.368 0-1.39-.78 1.676-1.336 2.527-.458 2.723-.143 3.161 5.086.125 1.5 1.411 1.641 2.271.25.34-.55.141-1-.441-1s-1.059-.45-1.059-1 .702-1 1.559-1 1.322.384 1.032.853c-.29.469.135 1.706.943 2.75 1.022 1.318 1.304 1.414.925.314-.338-.983.023-1.584.954-1.584.824 0 1.267.375.984.834-.283.458-.087.833.437.833s1.198-.64 1.498-1.422c.659-1.719 4.592-.941 5.36 1.061.287.748 1.261 1.354 2.165 1.346 1.426-.014 1.445-.144.143-.985-1.213-.784-1.069-.972.75-.985 1.238-.008 2.25.374 2.25.848 0 .475 1.012.8 2.25.721 1.238-.078 2.622.321 3.076.887.502.625.658.441.396-.471-.236-.825-1.17-1.368-2.076-1.206-1.223.218-1.62-.424-1.546-2.5.082-2.299.215-2.44.75-.794.357 1.1 1.526 2.153 2.596 2.339 1.612.281 1.736.086.725-1.133-.973-1.172-.94-1.581.162-2.004 1.018-.39 1.298.214 1.057 2.282-.276 2.376-.021 2.732 1.647 2.296 1.085-.284 2.575-.017 3.31.593.736.61 1.626.821 1.979.467.354-.353-.138-1.232-1.092-1.953-1.576-1.191-1.524-1.273.568-.896 1.959.352 2.213.086 1.703-1.788-.523-1.917-.458-1.976.497-.453 1.305 2.081 3.446 2.36 2.674.349-.671-1.749 1.865-1.495 3.584.358 1.003 1.081.954 1.182-.26.529-.825-.443-1.162-.434-.748.023.414.456-.011 1.672-.944 2.703-1.499 1.656-1.508 1.802-.079 1.254.889-.341 1.839-1.2 2.11-1.907.319-.831 1.922-1.179 4.524-.982 3.041.231 3.903-.023 3.515-1.034-.283-.738-.023-1.645.579-2.016.601-.372.969-.136.818.524-.151.659.35 1.426 1.114 1.704.807.293 1.115.06.734-.556a1.239 1.239 0 01.385-1.704c.573-.354.918-.104.767.556-.151.659.35 1.426 1.114 1.704.851.309 1.119.067.691-.625-.384-.622-.221-1.13.361-1.13s1.066.563 1.074 1.25c.011.833.339.75.985-.25.533-.825.976-1.107.985-.628.008.48.578.421 1.265-.131.688-.552 2.487-.863 4-.691 1.666.19 2.75-.166 2.75-.904 0-.67.834-1.217 1.853-1.217 1.237 0 1.813.677 1.733 2.035-.085 1.432-.709 1.949-2.103 1.744-1.628-.239-1.714-.111-.483.714 1.839 1.233 3.785-.429 4.276-3.651.187-1.221.637-2.517 1-2.881.364-.363.478.291.254 1.454-.224 1.163.045 2.393.598 2.735 1.438.889 2.219-.211 1.251-1.762-1.407-2.256-1.489-5.02-.136-4.57.691.23 1.306 1.354 1.366 2.498.166 3.154 1.189 5.255 2.56 5.255.957 0 .964-.267.031-1.2-1.343-1.343-1.598-2.863-.45-2.682 2.146.339 3.185-.374 4.178-2.868.856-2.15 1-2.247.662-.443-.362 1.931-.194 2.109 1.031 1.093 1.109-.921 1.745-.934 2.621-.058 1.717 1.717 2.474 1.425 3.135-1.206.45-1.794 1.186-2.299 3.051-2.094 1.352.148 2.937.565 3.522.927.585.362 1.319-.005 1.629-.815.311-.811 1.747-1.77 3.191-2.132 2.067-.519 2.317-.855 1.178-1.575-1.045-.661-1.091-.921-.167-.932 1.893-.022 2.733 3.046 1.115 4.071-1.034.654-1.066.887-.121.899.701.008 1.702-1.11 2.225-2.485.523-1.375 1.692-2.5 2.598-2.5 1.395 0 1.449.268.352 1.75-.712.962.577-.213 2.865-2.612 2.581-2.707 4.721-4.146 5.64-3.794 1.726.663 3.062-.906 1.561-1.834-.559-.345-1.016-1.12-1.016-1.722 0-.602.9-.056 2 1.212s2 1.787 2 1.153c0-.634.436-1.153.969-1.153.532 0 .727.629.431 1.399-.295.769.021 1.743.702 2.164.859.531 1.046.265.612-.867-.345-.898-.148-1.928.436-2.289.707-.437.609-.945-.293-1.517-1.047-.663-.944-.863.452-.875.995-.008 1.531-.465 1.191-1.015-.34-.55-.141-1 .441-1s1.059.675 1.059 1.5c0 1.91 1.612 1.954 2.337.065.303-.79.013-1.654-.643-1.921-.657-.268-.166-.522 1.091-.565 1.982-.069 2.143.186 1.215 1.921-.726 1.356-.737 2-.035 2 .569 0 1.035-.702 1.035-1.559s.45-1.281 1-.941c.55.34 1 .179 1-.358 0-.536-.51-1.145-1.134-1.353-.733-.245-.532-.98.571-2.084 1.447-1.446 1.475-1.705.184-1.705-.837 0-1.98.788-2.541 1.75-.561.962-1.033 1.243-1.05.622-.034-1.268 1.665-2.776 4.103-3.64 1.327-.471 1.59.054 1.405 2.807-.124 1.863.143 3.158.595 2.879.452-.279.837-36.938.855-81.463l.034-80.955H390l.015 79.25m-107.67-76.707c-.326.849-.369 1.767-.096 2.04.274.273.737-.422 1.03-1.543.624-2.383-.069-2.751-.934-.497m-7.88 2.065c1.729 1.729 3.202 1.794 3.202.142 0-.687-1.034-1.314-2.297-1.392-1.962-.121-2.094.061-.905 1.25m445.348-.925c.721.289 1.584.253 1.916-.079.332-.332-.258-.568-1.312-.525-1.165.048-1.402.285-.604.604m-439.004 5.067c-1.536 3.701-1.599 4.527-.459 6.047.798 1.063 1.122 1.063 1.796 0 1.199-1.889 1.035-3.027-.316-2.192-.819.506-.946.148-.426-1.191.409-1.053.823-2.364.92-2.914.097-.55.626-1.331 1.176-1.735.616-.452.51-.74-.275-.75-.701-.008-1.788 1.222-2.416 2.735m1.762 10.821c-1.966 1.967-2.163 4.165-.229 2.56.738-.612 1.662-.794 2.053-.403s.385-.137-.012-1.173c-.542-1.411-.391-1.678.602-1.065.881.545 1.085.433.61-.335-.922-1.493-1.145-1.462-3.024.416M719.5 555c-.34.55-.168 1 .382 1s1.278-.45 1.618-1c.34-.55.168-1-.382-1s-1.278.45-1.618 1m-5.768 10.085c.398 1.519.761 1.736 1.341.797.86-1.392.324-2.882-1.038-2.882-.466 0-.602.938-.303 2.085m-2.919 1.598c.721.289 1.584.253 1.916-.079.332-.332-.258-.568-1.312-.525-1.165.048-1.402.285-.604.604m-424.248 5.212c-.305.493.104 1.148.909 1.457 1.562.599 2.897-.648 1.832-1.713-.904-.904-2.093-.793-2.741.256m-.465 6.81c.729 1.212 1.54 1.989 1.803 1.726.263-.263-.333-1.255-1.324-2.205-1.722-1.649-1.744-1.628-.479.479M705.5 580c-.34.55-.141 1 .441 1s1.059-.45 1.059-1-.198-1-.441-1-.719.45-1.059 1m3.5 3.059c0 .582.45.781 1 .441s1-.816 1-1.059-.45-.441-1-.441-1 .477-1 1.059m1.186 3.658C707.808 589.672 707.441 591 709 591c.55 0 1-.59 1-1.311 0-.722.918-2.297 2.039-3.5 1.121-1.204 1.655-2.189 1.186-2.189-.469 0-1.836 1.223-3.039 2.717m-5.883 4.214c-.132 1.837.29 2.736 1.284 2.736.94 0 1.131-.349.524-.956-.525-.525-.734-1.529-.465-2.232.27-.702.122-1.503-.328-1.78-.45-.277-.906.727-1.015 2.232M293.5 590c-.34.55.11 1 1 1s1.34-.45 1-1c-.34-.55-.79-1-1-1-.21 0-.66.45-1 1m4.5 4.378c0 .207.6.875 1.333 1.484 1.01.837 1.334.746 1.334-.378 0-.816-.6-1.484-1.334-1.484-.733 0-1.333.17-1.333.378m402.079 1.205c.048 1.165.285 1.402.604.605.289-.722.253-1.585-.079-1.917-.332-.332-.568.258-.525 1.312M300 598.941c0 .518.375 1.173.833 1.456.459.283.834-.14.834-.941 0-.801-.375-1.456-.834-1.456-.458 0-.833.423-.833.941m402.738-.249c-.969.253-1.505.875-1.191 1.384.855 1.384 2.166 1.116 2.815-.576.316-.825.477-1.448.357-1.384-.121.064-1.012.323-1.981.576m-1.579 4.058c.311 1.47-1.384 4.229-2.264 3.685-.492-.304-.895-.028-.895.613s.661.912 1.468.603c.807-.31 1.734-.133 2.059.393.795 1.286 2.473 1.217 2.473-.103 0-.582-.419-.8-.931-.484-1.702 1.052-2.222-1.447-.633-3.036 1.951-1.951 1.963-2.421.064-2.421-.825 0-1.429.337-1.341.75m-395.744 3.388c-.432.698-.292.904.345.51.588-.363 1.297-.095 1.576.596.362.899.529.917.585.065.114-1.721-1.656-2.548-2.506-1.171m.169 7.725c-.25.405.529 1.336 1.731 2.068s1.851.976 1.444.542c-.408-.434-.318-1.299.199-1.922.642-.773.328-1.179-.989-1.278-1.061-.08-2.134.186-2.385.59m384.14 1.364c.554.7 1.257 1.948 1.563 2.773.379 1.024.58.82.634-.643.043-1.179-.66-2.426-1.562-2.773-1.228-.471-1.388-.309-.635.643M694 616c0 .55.45 1 1 1s1-.45 1-1-.45-1-1-1-1 .45-1 1m-388.667 4.581c0 .695.865 1.073 1.969.861 2.93-.564 3.071-1.138.407-1.647-1.468-.28-2.376.02-2.376.786m5.667-.699c0 .55.45 1.278 1 1.618.55.34 1 .168 1-.382s-.45-1.278-1-1.618c-.55-.34-1-.168-1 .382m8 6.618c0 .825.436 1.5.969 1.5.532 0 .709-.675.393-1.5-.317-.825-.753-1.5-.969-1.5-.216 0-.393.675-.393 1.5m-5.667.876c0 .659 1.007 1.956 2.237 2.884 2.021 1.525 2.295 1.534 2.844.102.433-1.126.171-1.417-.903-1.005-.831.319-1.511.144-1.511-.388 0-.533.525-.969 1.167-.969 1.714 0 .418-1.002-1.865-1.442-1.083-.208-1.969.16-1.969.818m369.177 3.64c.346.559 1.047.758 1.559.441 1.387-.857 1.129-1.457-.628-1.457-.857 0-1.276.457-.931 1.016m-4.01.984c.34.55.816 1 1.059 1s.441-.45.441-1-.477-1-1.059-1-.781.45-.441 1m-3.5 6.441c0 .857.45 1.559 1 1.559s1-.423 1-.941-.45-1.219-1-1.559c-.55-.34-1 .084-1 .941m1.564 4.266c-.542 1.425-.428 1.54.56.56.684-.679.991-1.486.683-1.793-.308-.308-.867.247-1.243 1.233m-352.49.704c-.801.965-.839 1.616-.123 2.059.991.612 1.433-.039 1.167-1.72-.065-.413.381-.75.99-.75.694 0 .876 1.03.487 2.75-.52 2.296-.441 2.451.475.939 2.046-3.376-.554-6.221-2.996-3.278M391.5 693c-.34.55-.141 1 .441 1s1.059-.45 1.059-1-.198-1-.441-1-.719.45-1.059 1m7.929 5c0 1.295.338 1.633.985.986.648-.648.648-1.324 0-1.972-.647-.647-.985-.309-.985.986M395 700c0 .55.423 1 .941 1s1.219-.45 1.559-1c.34-.55-.084-1-.941-1s-1.559.45-1.559 1m194.429 2.299c-.551 1.211-1.582 2.077-2.29 1.926-.708-.151-1.015.167-.681.707.895 1.449 3.372.179 4.095-2.1.887-2.793.08-3.176-1.124-.533m1.791 4.31c-1.835 1.965-1.47 2.595.801 1.38 1.111-.595 2.461-.809 3-.476.538.333.979.181.979-.337 0-1.558-3.47-1.969-4.78-.567M576 707c0 .55.477 1 1.059 1s.781-.45.441-1-.816-1-1.059-1-.441.45-.441 1m5.333.456c0 .801.383 1.22.85.931.467-.289.591-.944.274-1.456-.808-1.308-1.124-1.161-1.124.525m-161 1c0 .801.383 1.22.85.931.467-.289.591-.944.274-1.456-.808-1.308-1.124-1.161-1.124.525m154.218.815c.361.942-.014 1.687-.951 1.892-.851.185-1.222.812-.824 1.392.474.69 1.306.454 2.407-.683 1.464-1.512 1.494-1.895.227-2.947-1.182-.981-1.344-.916-.859.346m-150.738 1.412c.721.289 1.584.253 1.916-.079.332-.332-.258-.568-1.312-.525-1.165.048-1.402.285-.604.604m14.266 1.9c.048 1.165.285 1.402.604.605.289-.722.253-1.585-.079-1.917-.332-.332-.568.258-.525 1.312M576 714c0 .55.45 1 1 1s1-.45 1-1-.45-1-1-1-1 .45-1 1m-29.333 1.667c-.367.366-.667 1.131-.667 1.7 0 .626.466.567 1.183-.15.651-.651.951-1.416.667-1.7-.284-.285-.817-.217-1.183.15m20.666.877c0 .801.375 1.456.834 1.456.458 0 .833-.423.833-.941s-.375-1.173-.833-1.456c-.459-.283-.834.14-.834.941m-122.675 1.007c.607 1.582 2.342 1.994 2.342.556 0-.491-.652-1.143-1.449-1.449-.969-.372-1.265-.076-.893.893M554.5 717c-.34.55-.168 1 .382 1s1.278-.45 1.618-1c.34-.55.168-1-.382-1s-1.278.45-1.618 1m-120.628 1.664c-1.244 1.508-1.162 1.552.878.465 2.327-1.24 2.9-2.129 1.372-2.129-.482 0-1.495.749-2.25 1.664m17.128-.497c0 .458.675.833 1.5.833s1.5-.375 1.5-.833c0-.459-.675-.834-1.5-.834s-1.5.375-1.5.834m82.229.021c.218.653.942 1.294 1.608 1.424.667.131.749.008.182-.272-.567-.281-.777-.922-.466-1.425s.051-.915-.577-.915c-.629 0-.965.534-.747 1.188M562 719.5c0 .825.436 1.5.969 1.5.532 0 .709-.675.393-1.5-.317-.825-.753-1.5-.969-1.5-.216 0-.393.675-.393 1.5m-103.243 3.701c-.385 2.622-.267 2.849.754 1.453 1.688-2.308 2.783-2.072 1.501.323-.862 1.612-.777 1.87.459 1.396.835-.321 1.269-.985.964-1.478-.304-.492.175-.895 1.065-.895.968 0 1.332.464.905 1.155-.433.699-.276.883.397.467.611-.377.85-1.366.531-2.197-.319-.831-.826-1.265-1.127-.965-.3.301-1.547-.108-2.77-.91-2.116-1.387-2.245-1.308-2.679 1.651m24.898-1.451c-.255.413.618.75 1.94.75 1.323 0 2.405-.337 2.405-.75s-.873-.75-1.941-.75-2.15.337-2.404.75m20.804.317c-.363.586-.445 1.281-.183 1.543s.743-.218 1.069-1.067c.676-1.762.1-2.072-.886-.476m15 0c-.363.586-.389 1.336-.059 1.666.33.33.607-.037.615-.816.013-1.171.179-1.158.959.075.803 1.27 1.134 1.285 2.234.103.966-1.038.976-1.21.042-.683-.687.388-1.25.229-1.25-.353 0-1.373-1.691-1.368-2.541.008m-67.38.624c-.114 1.721 1.656 2.548 2.506 1.171.432-.698.292-.904-.345-.51-.588.363-1.297.095-1.576-.596-.362-.899-.529-.917-.585-.065M466.5 723c.34.55.816 1 1.059 1s.441-.45.441-1-.477-1-1.059-1-.781.45-.441 1m26.5.059c0 .582.45.781 1 .441s1-.816 1-1.059-.45-.441-1-.441-1 .477-1 1.059m44.603.108c.283.458.012.833-.603.833s-.84.45-.5 1c.34.55 1.379.964 2.309.921 1.107-.052 1.245-.258.399-.597-.905-.363-.984-.889-.266-1.755.734-.884.616-1.236-.414-1.236-.792 0-1.208.375-.925.834m-25.965 3.333c.317.825.705 1.5.862 1.5.157 0 .545-.675.862-1.5.347-.905.005-1.5-.862-1.5s-1.209.595-.862 1.5m9.441 1.25c.048 1.056.28 1.252.585.494.279-.691.988-.959 1.576-.596.632.391.777.189.355-.493-1.078-1.745-2.605-1.384-2.516.595m5.921-1.295c0 .772 2.976 1.392 3.399.709.254-.412-.406-.814-1.468-.894-1.062-.08-1.931.003-1.931.185M487.5 728c-.34.55-.141 1 .441 1s1.059-.45 1.059-1-.198-1-.441-1-.719.45-1.059 1m16.5-.167c0 .459.655.834 1.456.834.801 0 1.224-.375.941-.834-.283-.458-.938-.833-1.456-.833s-.941.375-.941.833" fill="#1976D2" fill-rule="evenodd"/><path fill-opacity=".174" d="M488 79.262c-.275.273-8.6.758-18.5 1.077-25.977.838-60.93 3.141-79.139 5.216-2.276.259-8.576.904-14 1.434-16.863 1.646-34.841 3.909-44.039 5.542-4.852.861-13.997 2.205-20.322 2.986-44.031 5.435-86.233 12.264-101.5 16.425-1.65.45-6.825 1.803-11.5 3.007-14.234 3.665-19.33 5.233-23.345 7.183-2.114 1.027-4.495 1.868-5.292 1.868-1.553 0-2.899.936-7.551 5.25-1.631 1.512-3.661 2.75-4.511 2.75-1.326 0-1.351.24-.173 1.687 1.219 1.499 1.149 1.604-.626.936-1.542-.579-1.314-.034 1 2.389l2.998 3.141-3-.701c-2.874-.671-2.773-.466 2.402 4.859l5.401 5.559-4.401.315c-2.421.173-4.289.765-4.152 1.315.137.55.813 1 1.5 1 1.529 0 2.798 1.614 2.125 2.702-.271.439-2.18.798-4.243.798-2.062 0-4.459.563-5.327 1.25-1.721 1.364-5.286 19.875-11.304 58.712-8.676 55.981-14.266 111.529-18.571 184.538-.584 9.9-1.314 48.488-1.622 85.75l-.56 67.75-5.124.006c-14.064.015-20.089 5.442-25.143 22.647-2.614 8.897-2.431 28.312.564 59.847l1.993 21c2.365 24.926 3.812 37.271 8.38 71.5 2.23 16.712 3.735 27.359 4.522 32 .513 3.025 1.465 8.875 2.116 13s1.549 9.075 1.997 11c.447 1.925 1.124 6.2 1.503 9.5.38 3.3 1.035 6.45 1.455 7 .421.55 1.085 3.475 1.477 6.5.392 3.025 1.821 10.45 3.177 16.5 1.355 6.05 2.692 12.8 2.971 15 1.111 8.767 7.504 25.956 10.011 26.918.744.286 1.353 1.433 1.353 2.551 0 1.344.657 2.031 1.941 2.031 1.068 0 2.247.496 2.622 1.102 1.748 2.828 14.371 6.402 25.937 7.344 11.903.968 43.809 1.099 45.288.185.707-.437 3.084-.49 5.283-.119 2.583.436 4.512.249 5.451-.53.799-.663 2.119-.95 2.933-.638.815.313 1.735.158 2.045-.344.31-.502 1.153-.687 1.872-.411.735.282 2.364-1.048 3.718-3.037l2.41-3.538 9.643-.007c5.304-.004 15.953.659 23.664 1.473 38.998 4.115 97.965 8.124 135.036 9.18l23.342.664-.619 3.088c-1.569 7.823-1.774 10.588-.787 10.588.568 0 .829.788.578 1.75-.321 1.231.648 2.343 3.27 3.75 2.049 1.1 4.209 2.48 4.799 3.067 3.804 3.782 34.013 11.579 57.995 14.969 22.911 3.238 65.816 6.632 100.079 7.915 17.622.661 104.222.79 109 .163 1.65-.216 9.525-.689 17.5-1.051 15.233-.69 41.016-2.276 49.5-3.044 2.75-.249 10.625-.951 17.5-1.56 42.948-3.805 71.856-7.964 86.581-12.455 9.388-2.864 17.157-7.274 23.827-13.525 4.591-4.304 11.594-15.374 13.594-21.49.717-2.194 1.905-5.789 2.639-7.989.734-2.2 1.79-6.925 2.347-10.5.557-3.575 1.923-11.675 3.036-18 3.706-21.063 9.625-68.092 12.019-95.5.577-6.6 1.703-18.075 2.502-25.5.799-7.425 2.128-24.975 2.953-39 .826-14.025 1.718-28.65 1.984-32.5 3.082-44.601 2.496-187.993-.956-234-.207-2.75-.652-10.175-.989-16.5-2.143-40.122-5.499-85.58-8.601-116.5-.552-5.5-1.874-18.775-2.938-29.5-4.608-46.456-12.229-100.525-15.595-110.64-.341-1.023-1.471-3.768-2.511-6.099-1.041-2.332-1.892-4.474-1.892-4.76 0-1.387-7.716-11.438-11.371-14.814C876.16 102.096 860.424 98.161 811 93.526c-9.075-.851-20.55-1.984-25.5-2.519-4.95-.535-16.057-1.44-24.682-2.011-8.624-.571-18.074-1.255-21-1.519-13.053-1.178-72.728-4.569-96.818-5.501-14.575-.564-29.65-1.211-33.5-1.438-11.336-.667-120.953-1.819-121.5-1.276m-46 76.755c-74.375 1.753-143.757 5.359-213 11.07-33.606 2.772-62.054 5.634-62.73 6.31-1.576 1.575-9.95 53.659-14.741 91.681C141.95 341.103 137.732 412.649 137.74 499c.008 78.267 3.071 139.296 10.792 215 4.967 48.705 16.125 128 18.011 128 .207 0 12.882 1.79 28.167 3.979 94.02 13.461 182.691 19.315 292.79 19.331 102.012.014 191.43-4.995 291.5-16.329 15.574-1.764 56.19-7.071 56.695-7.408.108-.072 1.565-7.992 3.239-17.602 31.079-178.424 31.452-408.883 1.007-622.409-2.191-15.366-4.184-28.139-4.43-28.384-1.088-1.088-72.667-7.987-110.511-10.65-30.164-2.124-72.448-4.307-106.5-5.499-40.879-1.432-135.629-1.975-176.5-1.012M331.174 275.314L329 277.629v471.022l2.314 2.175c2.252 2.115 3.009 2.174 27.826 2.174 25.374 0 25.523-.012 27.686-2.314l2.174-2.315V535h225v213.651l2.314 2.175c2.251 2.114 3.013 2.174 27.696 2.174h25.381l2.804-2.687 2.805-2.687V278.374l-2.805-2.687-2.804-2.687H643.87c-25.384 0-25.533.012-27.696 2.314L614 277.629V474H389V277.349l-2.314-2.175c-2.252-2.115-3.009-2.174-27.826-2.174-25.374 0-25.523.012-27.686 2.314" fill="#1976D2" fill-rule="evenodd"/><path fill-opacity=".763" d="M479 98.041c-20.714 1.345-43.699 4.526-58.5 8.096-10.23 2.467-20.5 5.998-20.5 7.048 0 .448-.503.815-1.118.815-1.775 0-6.85 6.297-6.851 8.5-.001 1.711 1.125 5.698 3.567 12.636.316.9 1.549 2.086 2.739 2.637 2.146.993 2.144 1.005-.337 1.543-1.375.298-14.2 1.046-28.5 1.663-67.83 2.923-157.43 9.447-206.5 15.036-4.675.533-9.222.972-10.104.977-1.781.009-3.073 6.049-9.306 43.508-30.297 182.097-31.028 397.706-2.026 598 2.35 16.233 9.289 57.69 9.727 58.121.422.414 39.77 6.383 58.209 8.829 57.766 7.664 117.525 12.675 187 15.682 32.431 1.403 135.392 1.732 178.75.571l29.75-.796.006 2.296c.004 1.263.679 3.586 1.5 5.161.822 1.576 1.494 3.376 1.494 4 0 1.505 6.485 6.636 8.388 6.636.821 0 1.75.415 2.064.922 1.888 3.055 22.568 7.069 46.048 8.939 24.54 1.954 98.187.532 120.5-2.326 1.925-.247 8-.945 13.5-1.551 19.854-2.189 51.272-7.048 58.476-9.045 22.726-6.297 32.302-17.547 37.403-43.939 2.775-14.361 6.643-39.724 8.688-56.967.552-4.657 1.212-9.382 1.467-10.5.255-1.118.657-4.283.893-7.033s1.107-11.075 1.936-18.5c1.401-12.556 1.784-16.554 3.114-32.5 2.886-34.586 4.053-53.578 5.253-85.5 1.204-32.035.855-149.395-.534-179.5-1.163-25.207-4.584-82.451-5.737-96-1.832-21.517-2.618-31.695-3.439-44.5-2.118-33.028-9.307-102.603-14.466-140-.796-5.775-1.741-12.975-2.099-16-1.811-15.309-8.716-31.514-15.954-37.446-8.557-7.011-19.769-10.362-43.501-12.999-33.24-3.693-40.891-4.493-48.5-5.073-4.4-.336-11.375-1.015-15.5-1.511-4.125-.495-14.7-1.373-23.5-1.952L720 104.54c-3.575-.235-10.775-.696-16-1.025-5.225-.328-12.074-.801-15.22-1.051-49.665-3.946-176.087-6.611-209.78-4.423m-42.5 57.63c-54.542 1.376-111.716 3.993-161.5 7.392-47.636 3.253-107.94 8.669-109.191 9.808-1.597 1.453-10.692 58.215-15.243 95.129-21.605 175.246-17.186 379.228 12.082 557.771 2.388 14.563 2.887 16.322 4.76 16.76 10.323 2.419 84.428 11.63 120.092 14.926 146.299 13.523 322.788 10.97 483-6.985 32.659-3.661 61.722-7.489 64.091-8.442 1.874-.755 2.518-3.458 6.23-26.186 10.484-64.18 15.68-114.891 20.377-198.844 1.695-30.304 1.699-157.078.005-191-3.585-71.812-8.516-129.995-16.231-191.5-3.381-26.953-8.392-61.254-9.043-61.902-.492-.489-41.456-4.886-65.929-7.077-46.792-4.19-110.981-7.833-167.5-9.508-29.385-.871-136.321-1.091-166-.342M331.687 275.805L329 278.609v469.017l2.805 2.687 2.804 2.687H383.626l2.682-2.8 2.683-2.8.254-106.45.255-106.45 112.25-.254 112.25-.255v213.635l2.805 2.687 2.804 2.687h25.021c24.862 0 25.035-.015 27.196-2.314l2.174-2.315V277.349l-2.314-2.175c-2.249-2.112-3.026-2.174-27.196-2.174h-24.881l-2.804 2.687-2.805 2.687V475H389V278.609l-2.687-2.804-2.687-2.805h-49.252l-2.687 2.805" fill="#1976D2" fill-rule="evenodd"/></svg>