<svg xmlns="http://www.w3.org/2000/svg" width="1000" height="1000"><path d="M453.5 102.035c-47.407.859-98.663 2.61-130.5 4.457-60.791 3.526-117.272 7.447-130 9.024-1.925.238-7.1.686-11.5.994-12.943.906-23.542 2.199-24.308 2.965-.203.203 5.853 7.402 13.459 15.997 12.509 14.136 14.108 15.6 16.755 15.328 1.609-.165 3.083.171 3.276.748.222.665-6.605 1.724-18.68 2.9-10.466 1.018-19.635 2.347-20.376 2.952-.784.64-2.871 9.667-4.993 21.6-12.331 69.325-19.779 136.268-24.701 222-1.713 29.849-2.338 132.437-1.026 168.5 2.494 68.53 7.514 131.238 15.651 195.5 4.833 38.165 12.807 88.353 14.464 91.034.882 1.428 8.027 2.737 40.479 7.421 82.003 11.836 187.527 19.487 269.394 19.532l23.393.013-.526 15.651-.526 15.65 35.633-.671c43.658-.824 69.089-1.508 79.632-2.143 4.4-.265 13.4-.732 20-1.037 16.323-.757 74.28-4.396 78-4.898 1.65-.223 7.5-.669 13-.991 17.478-1.023 61.226-5.373 100.5-9.993 6.875-.809 15.2-1.773 18.5-2.142 10.911-1.221 28.263-5.17 33.673-7.664 7.633-3.519 13.836-9.106 17.576-15.832 3.472-6.243 7.525-20.677 9.249-32.93.58-4.125 2.151-14.475 3.492-23 1.34-8.525 3.361-23.15 4.491-32.5 1.129-9.35 2.705-21.95 3.501-28 1.613-12.26 3.945-36.024 5.543-56.5l1.995-25.5c1.277-16.301 2.761-46.174 3.701-74.5 1.476-44.511.735-156.49-1.218-184-.254-3.575-.704-12.575-1-20-.553-13.856-.737-16.802-2.496-40-3.177-41.878-5.117-65.903-5.573-69-.284-1.925-.943-8-1.464-13.5-.522-5.5-1.209-12.7-1.527-16-.318-3.3-1.197-10.725-1.953-16.5s-1.642-13.425-1.969-17c-.328-3.575-1.241-11-2.029-16.5-.789-5.5-1.698-12.25-2.02-15-1.121-9.553-5.489-35.253-6.565-38.617-2.265-7.086-7.388-16.084-11.029-19.374-7.078-6.395-13.584-8.818-32.378-12.058-3.187-.549-29.799-3.242-44-4.452-7.15-.609-14.8-1.298-17-1.531-3.39-.359-41.908-3.189-67.5-4.96-34.173-2.364-85.241-4.302-145.322-5.514-50.428-1.018-54.818-1.016-113.178.041m-9.692 53.96c-79.161 1.778-156.832 5.984-231.808 12.55-30.149 2.64-45.157 4.279-45.889 5.01-1.457 1.457-10.593 59.204-15.07 95.252-7.331 59.029-11.311 115.949-13.055 186.693-2.698 109.462 4.911 233.305 21.095 343.335 3.264 22.195 6.628 42.207 7.188 42.767.75.751 57.494 8.496 83.231 11.361 79.254 8.823 146.927 12.334 238 12.347 99.681.013 184.023-4.569 282.5-15.349 16.455-1.801 65.192-8.016 65.695-8.378.108-.077 1.565-8.002 3.239-17.612 29.569-169.755 31.39-385.753 5.004-593.471-2.715-21.369-7.948-56.843-8.462-57.357-1.035-1.035-71.884-7.841-110.476-10.613-81.002-5.816-195.134-8.469-281.192-6.535M331.174 275.314L329 277.629v471.022l2.314 2.175c2.252 2.115 3.009 2.174 27.826 2.174 25.374 0 25.523-.012 27.686-2.314l2.174-2.315V535h225v213.651l2.314 2.175c2.251 2.114 3.013 2.174 27.696 2.174h25.381l2.804-2.687 2.805-2.687V278.374l-2.805-2.687-2.804-2.687H643.87c-25.384 0-25.533.012-27.696 2.314L614 277.629V474H389V277.349l-2.314-2.175c-2.252-2.115-3.009-2.174-27.826-2.174-25.374 0-25.523.012-27.686 2.314" fill="undefined" fill-rule="evenodd"/></svg>